<svg width="24" height="24" viewBox="0 0 24 24" fill="none" xmlns="http://www.w3.org/2000/svg">
<path d="M21.5276 5.45383C21.2463 5.17262 20.8649 5.01465 20.4671 5.01465C20.0694 5.01465 19.6879 5.17262 19.4066 5.45383L11.9816 12.8788L4.55662 5.45383C4.27371 5.18059 3.89481 5.0294 3.50151 5.03282C3.10822 5.03623 2.732 5.19399 2.45389 5.4721C2.17578 5.75021 2.01802 6.12643 2.01461 6.51973C2.01119 6.91302 2.16238 7.29192 2.43562 7.57483L10.9211 16.0603C11.2024 16.3415 11.5839 16.4995 11.9816 16.4995C12.3794 16.4995 12.7608 16.3415 13.0421 16.0603L21.5276 7.57483C21.8088 7.29354 21.9668 6.91207 21.9668 6.51433C21.9668 6.11658 21.8088 5.73512 21.5276 5.45383Z" fill="#2F2F2F"/>
</svg>
