<svg width="51" height="51" viewBox="0 0 51 51" fill="none" xmlns="http://www.w3.org/2000/svg">
<circle cx="25.5" cy="25.5" r="25.5" fill="#F7FBFF"/>
<g style="mix-blend-mode:luminosity">
<path d="M21.2188 25.9998C21.2188 25.108 21.4645 24.2725 21.8913 23.5572V20.5229H18.8571C17.6528 22.087 17 23.9931 17 25.9998C17 28.0064 17.6528 29.9125 18.8571 31.4766H21.8913V28.4423C21.4645 27.727 21.2188 26.8916 21.2188 25.9998Z" fill="#FBBD00"/>
<path d="M26 30.7812L23.8906 32.8905L26 34.9999C28.0067 34.9999 29.9128 34.3471 31.4768 33.1428V30.1118H28.4458C27.7242 30.5402 26.8853 30.7812 26 30.7812Z" fill="#0F9D58"/>
<path d="M21.8914 28.4424L18.8572 31.4766C19.0956 31.7863 19.3552 32.0828 19.6362 32.3638C21.336 34.0637 23.5961 34.9998 26.0001 34.9998V30.7811C24.2555 30.7811 22.7265 29.8417 21.8914 28.4424Z" fill="#31AA52"/>
<path d="M35 25.9998C35 25.4523 34.9504 24.9037 34.8526 24.3694L34.7735 23.937H26V28.1558H30.2698C29.8552 28.9806 29.2176 29.6535 28.4457 30.1118L31.4768 33.1428C31.7864 32.9044 32.083 32.6448 32.3639 32.3638C34.0638 30.6639 35 28.4038 35 25.9998Z" fill="#3C79E6"/>
<path d="M29.3809 22.6191L29.7537 22.992L32.7369 20.0089L32.364 19.6361C30.6641 17.9362 28.404 17 26 17L23.8906 19.1094L26 21.2188C27.2771 21.2188 28.4778 21.7161 29.3809 22.6191Z" fill="#CF2D48"/>
<path d="M25.9999 21.2188V17C23.5959 17 21.3358 17.9362 19.6359 19.636C19.355 19.9169 19.0954 20.2135 18.8569 20.5232L21.8912 23.5574C22.7263 22.1581 24.2553 21.2188 25.9999 21.2188Z" fill="#EB4132"/>
</g>
</svg>
