<svg width="13" height="17" viewBox="0 0 13 17" fill="none" xmlns="http://www.w3.org/2000/svg">
<path d="M6.35498 16.0479C1.79248 9.48535 0.97998 8.79785 0.97998 6.36035C0.97998 3.04785 3.63623 0.360352 6.97998 0.360352C10.2925 0.360352 12.98 3.04785 12.98 6.36035C12.98 8.79785 12.1362 9.48535 7.57373 16.0479C7.29248 16.4854 6.63623 16.4854 6.35498 16.0479ZM6.97998 8.86035C8.35498 8.86035 9.47998 7.7666 9.47998 6.36035C9.47998 4.98535 8.35498 3.86035 6.97998 3.86035C5.57373 3.86035 4.47998 4.98535 4.47998 6.36035C4.47998 7.7666 5.57373 8.86035 6.97998 8.86035Z" fill="white"/>
</svg>
