<svg width="17" height="17" viewBox="0 0 17 17" fill="none" xmlns="http://www.w3.org/2000/svg">
<path d="M16.5112 11.6729C16.7612 11.7979 16.9487 12.0791 16.9487 12.3916C16.9487 12.4229 16.9487 12.4854 16.9487 12.5479L16.1987 15.7979C16.105 16.1416 15.8237 16.3604 15.48 16.3604C7.44873 16.3604 0.97998 9.8916 0.97998 1.86035C0.97998 1.5166 1.19873 1.23535 1.54248 1.1416L4.79248 0.391602C4.85498 0.391602 4.91748 0.360352 4.94873 0.360352C5.26123 0.360352 5.54248 0.547852 5.66748 0.829102L7.16748 4.3291C7.19873 4.42285 7.22998 4.5166 7.22998 4.61035C7.22998 4.86035 7.10498 5.0791 6.94873 5.2041L5.04248 6.7666C6.19873 9.2041 8.13623 11.1416 10.5737 12.2979L12.1362 10.3916C12.2612 10.2354 12.48 10.1104 12.6987 10.1104C12.8237 10.1104 12.9175 10.1416 13.0112 10.1729L16.5112 11.6729Z" fill="white"/>
</svg>
