<svg width="48" height="48" viewBox="0 0 48 48" fill="none" xmlns="http://www.w3.org/2000/svg">
<g clip-path="url(#clip0_79_1579)">
<path d="M18.1777 0H20.9898V3.99806H18.1777V0Z" fill="#FF5C00"/>
<path d="M9.24414 3.14624L11.6794 1.74022L13.6784 5.20254L11.2432 6.60856L9.24414 3.14624Z" fill="#FF5C00"/>
<path d="M3.08057 10.3379L4.48659 7.90267L7.94891 9.9017L6.54289 12.3369L3.08057 10.3379Z" fill="#FF5C00"/>
<path d="M1.33838 16.8357H5.33654V19.6477H1.33838V16.8357Z" fill="#FF5C00"/>
<path d="M3.07861 26.1455L6.54094 24.1465L7.94696 26.5817L4.48463 28.5807L3.07861 26.1455Z" fill="#FF5C00"/>
<path d="M31.2163 9.90479L34.6786 7.90575L36.0846 10.341L32.6223 12.34L31.2163 9.90479Z" fill="#FF5C00"/>
<path d="M25.4888 5.20508L27.4878 1.74268L29.9231 3.14869L27.924 6.6111L25.4888 5.20508Z" fill="#FF5C00"/>
<path d="M20.1715 21.7145C20.3523 21.7145 20.5336 21.7193 20.7146 21.7288C21.6074 19.9849 22.9179 18.4914 24.5493 17.3691C26.4197 16.0822 28.5954 15.3706 30.8637 15.2981C30.2946 13.1136 29.0978 11.1294 27.3975 9.59238C25.2521 7.65292 22.4765 6.58472 19.5821 6.58472C13.1535 6.58472 7.92334 11.8148 7.92334 18.2435C7.92334 21.4005 9.17863 24.3655 11.403 26.5499C13.2577 23.5995 16.5286 21.7145 20.1715 21.7145Z" fill="#FF5C00"/>
<path d="M17.0439 46.8907L19.6279 48L22.0183 42.4321H18.9581L17.0439 46.8907Z" fill="#FF5C00"/>
<path d="M24.0308 46.8907L26.6147 48L29.0052 42.4321H25.9449L24.0308 46.8907Z" fill="#FF5C00"/>
<path d="M31.0181 46.8907L33.6021 48L35.9925 42.4321H32.9322L31.0181 46.8907Z" fill="#FF5C00"/>
<path d="M46.6617 33.6559C46.6617 30.666 44.4284 28.124 41.4671 27.7431L40.3284 27.5966L40.2443 26.4515C40.0778 24.1866 39.0681 22.0826 37.4012 20.5269C35.7261 18.9636 33.5411 18.1028 31.2484 18.1028C27.5466 18.1028 24.2611 20.3215 22.8778 23.7554L22.4599 24.7927L21.3552 24.6189C20.965 24.5575 20.5667 24.5264 20.1716 24.5264C16.6969 24.5264 13.6853 26.878 12.848 30.2451L12.5879 31.2912L11.5101 31.3116C9.26286 31.354 7.43457 33.2169 7.43457 35.4645C7.43457 37.7557 9.29867 39.6198 11.5899 39.6198H40.6977C43.9862 39.62 46.6617 36.9446 46.6617 33.6559Z" fill="#FF5C00"/>
</g>
<defs>
<clipPath id="clip0_79_1579">
<rect width="48" height="48" fill="white"/>
</clipPath>
</defs>
</svg>
