<svg width="48" height="48" viewBox="0 0 48 48" fill="none" xmlns="http://www.w3.org/2000/svg">
<path d="M46.5 21.75V26.25C46.4993 26.8465 46.2621 27.4185 45.8403 27.8403C45.4185 28.2621 44.8465 28.4993 44.25 28.5H41.0431C40.6406 30.03 40.0318 31.498 39.2332 32.8638L41.5034 35.1405C41.9223 35.5627 42.1572 36.1334 42.1571 36.7282C42.1569 37.3229 41.9217 37.8935 41.5027 38.3155L38.3152 41.5027C37.8877 41.9116 37.3189 42.1399 36.7273 42.1399C36.1357 42.1399 35.5669 41.9116 35.1394 41.5027L32.8638 39.2332C31.498 40.0318 30.03 40.6406 28.5 41.0431V44.25C28.4993 44.8465 28.2621 45.4185 27.8403 45.8403C27.4185 46.2621 26.8465 46.4993 26.25 46.5H21.75C21.1535 46.4993 20.5815 46.2621 20.1597 45.8403C19.7379 45.4185 19.5007 44.8465 19.5 44.25V41.0431C18.5707 40.797 17.663 40.4755 16.786 40.0818C16.676 40.0313 16.5798 39.955 16.5055 39.8595C16.4311 39.764 16.3808 39.6521 16.3588 39.533C16.3368 39.414 16.3437 39.2915 16.379 39.1757C16.4143 39.0599 16.4769 38.9543 16.5615 38.8678L19.749 35.6726C19.8448 35.5768 19.9648 35.5086 20.0962 35.4754C20.2276 35.4422 20.3655 35.4452 20.4954 35.484C21.6323 35.8255 22.8129 35.9993 24 36C26.3734 36 28.6935 35.2962 30.6668 33.9776C32.6402 32.6591 34.1783 30.7849 35.0866 28.5922C35.9948 26.3995 36.2324 23.9867 35.7694 21.6589C35.3064 19.3311 34.1635 17.1929 32.4853 15.5147C30.8071 13.8365 28.6689 12.6936 26.3411 12.2306C24.0133 11.7676 21.6005 12.0052 19.4078 12.9134C17.2151 13.8217 15.3409 15.3598 14.0224 17.3332C12.7038 19.3065 12 21.6266 12 24C12.0011 25.1848 12.1749 26.3631 12.516 27.4977C12.5549 27.6273 12.5579 27.7651 12.5247 27.8963C12.4916 28.0275 12.4235 28.1473 12.3278 28.2429L9.13257 31.4377C9.04616 31.5227 8.94056 31.5855 8.82472 31.621C8.70888 31.6565 8.5862 31.6636 8.46705 31.6416C8.3479 31.6197 8.23578 31.5694 8.14019 31.4949C8.04459 31.4205 7.96833 31.3241 7.91785 31.214C7.5245 30.3369 7.20313 29.4292 6.95691 28.5H3.75C3.15346 28.4993 2.58154 28.2621 2.15973 27.8403C1.73791 27.4185 1.50065 26.8465 1.5 26.25V21.75C1.50065 21.1535 1.73791 20.5815 2.15973 20.1597C2.58154 19.7379 3.15346 19.5007 3.75 19.5H6.95691C7.35944 17.9699 7.9683 16.5017 8.76675 15.1359L6.49658 12.8595C6.07774 12.4373 5.84278 11.8666 5.84292 11.2718C5.84306 10.6771 6.07829 10.1065 6.49733 9.68445L9.68483 6.49732C10.1123 6.08836 10.6811 5.86011 11.2727 5.86011C11.8643 5.86011 12.4331 6.08836 12.8606 6.49732L15.1362 8.76675C16.502 7.96824 17.97 7.35937 19.5 6.95691V3.75C19.5007 3.15346 19.7379 2.58154 20.1597 2.15973C20.5815 1.73791 21.1535 1.50065 21.75 1.5H26.25C26.8465 1.50065 27.4185 1.73791 27.8403 2.15973C28.2621 2.58154 28.4993 3.15346 28.5 3.75V6.95691C30.03 7.35937 31.498 7.96824 32.8638 8.76675L35.1405 6.49658C35.5681 6.08806 36.1368 5.86016 36.7282 5.8603C37.3196 5.86044 37.8881 6.08861 38.3155 6.49733L41.5027 9.68483C41.9219 10.107 42.1571 10.6778 42.1571 11.2727C42.1571 11.8677 41.9219 12.4384 41.5027 12.8606L39.2332 15.1359C40.0317 16.5017 40.6406 17.9699 41.0431 19.5H44.25C44.8465 19.5007 45.4185 19.7379 45.8403 20.1597C46.2621 20.5815 46.4993 21.1535 46.5 21.75ZM32.5433 20.172C32.5016 20.0518 32.4301 19.9442 32.3357 19.859C32.2412 19.7738 32.1267 19.7139 32.0028 19.6848C31.879 19.6556 31.7498 19.6583 31.6273 19.6924C31.5047 19.7266 31.3928 19.7912 31.3019 19.8801L27.8892 23.2932L25.5026 22.4975L24.7072 20.1109L28.1199 16.6982C28.2089 16.6072 28.2734 16.4953 28.3076 16.3728C28.3418 16.2502 28.3444 16.121 28.3153 15.9972C28.2862 15.8733 28.2262 15.7588 28.1411 15.6644C28.0559 15.5699 27.9482 15.4984 27.828 15.4567C26.5436 15.0231 25.1655 14.9463 23.8409 15.2344C22.5162 15.5225 21.2946 16.1648 20.3063 17.0927C19.3181 18.0207 18.6002 19.1995 18.2293 20.5034C17.8584 21.8073 17.8484 23.1874 18.2003 24.4966L2.66419 40.0327C1.96095 40.736 1.56588 41.6898 1.56588 42.6843C1.56588 43.6788 1.96095 44.6326 2.66419 45.3358C3.36742 46.0391 4.32121 46.4342 5.31574 46.4342C6.31026 46.4342 7.26405 46.0391 7.96729 45.3358L23.5034 29.7997C24.8126 30.1516 26.1927 30.1416 27.4966 29.7707C28.8005 29.3998 29.9793 28.682 30.9073 27.6937C31.8352 26.7054 32.4775 25.4838 32.7656 24.1591C33.0538 22.8345 32.9769 21.4564 32.5433 20.172Z" fill="#FF5C00"/>
</svg>
