<svg width="48" height="48" viewBox="0 0 48 48" fill="none" xmlns="http://www.w3.org/2000/svg">
<g clip-path="url(#clip0_79_2094)">
<path d="M40.9706 7.02938C36.4375 2.49647 30.4106 0 24 0C17.5894 0 11.5625 2.49647 7.02938 7.02938C2.49647 11.5625 0 17.5894 0 24C0 30.4106 2.49647 36.4375 7.02938 40.9706C11.5625 45.5035 17.5894 48 24 48C30.4106 48 36.4375 45.5035 40.9706 40.9706C45.5035 36.4375 48 30.4106 48 24C48 17.5894 45.5035 11.5625 40.9706 7.02938ZM24 45.1875C18.3406 45.1875 13.02 42.9836 9.01819 38.9818C5.01638 34.98 2.8125 29.6594 2.8125 24C2.8125 18.812 4.66575 13.9094 8.05716 10.0458L15.0893 17.078C13.1624 19.8036 12.8873 22.3703 13.0584 24.1872L11.364 21.9833L11.1531 25.7639C11.1393 26.012 11.1322 26.2568 11.1322 26.4914C11.1322 32.3688 15.0914 37.3389 20.4829 38.8746C18.7304 37.7236 17.5701 35.7418 17.5701 33.493C17.5701 31.6688 18.349 29.923 19.7072 28.7036L20.8605 27.6682L21.7792 28.9163C21.905 29.0872 21.9995 29.1618 22.0463 29.1918C22.1431 29.1291 22.3474 28.9144 22.4774 28.5011C22.7063 27.7737 22.5544 26.9484 22.0711 26.2936L20.1244 23.6556L23.3774 24.0632C23.5646 24.0866 25.2556 24.3294 26.9632 25.6127C28.5494 26.8048 30.4403 29.1398 30.4403 33.4931C30.4403 35.7419 29.28 37.7237 27.5274 38.8747C29.7791 38.2333 31.7806 36.9925 33.3486 35.3373L37.9543 39.943C34.0906 43.3342 29.188 45.1875 24 45.1875ZM39.9428 37.9541L35.0634 33.0747C36.2153 31.1472 36.878 28.8953 36.878 26.4913C36.878 25.3743 36.7338 24.2633 36.4495 23.1891L35.6653 20.2048L33.9318 22.7515C33.9267 22.7587 33.6626 23.1329 33.1351 23.6561C33.0886 22.2814 32.9227 20.5707 32.485 18.7903C31.1034 13.1696 27.7044 9.59747 22.6554 8.46009L20.3751 7.94644L20.9896 10.2017C22.2062 14.6666 21.5227 17.4934 20.4921 18.5033L10.0458 8.05706C13.9095 4.66575 18.812 2.8125 24 2.8125C29.6594 2.8125 34.98 5.01638 38.9818 9.01819C42.9836 13.02 45.1875 18.3406 45.1875 24C45.1875 29.188 43.3343 34.0906 39.9428 37.9541Z" fill="#FF5C00"/>
</g>
<defs>
<clipPath id="clip0_79_2094">
<rect width="48" height="48" fill="white"/>
</clipPath>
</defs>
</svg>
