<svg width="48" height="48" viewBox="0 0 48 48" fill="none" xmlns="http://www.w3.org/2000/svg">
<path d="M39.75 8.25007C33.7762 8.25007 27.8205 5.45182 25.2653 1.44382C25.1298 1.23103 24.9428 1.05585 24.7216 0.934495C24.5005 0.813135 24.2523 0.749512 24 0.749512C23.7477 0.749512 23.4995 0.813135 23.2784 0.934495C23.0572 1.05585 22.8702 1.23103 22.7347 1.44382C20.1795 5.45182 14.223 8.25007 8.25 8.25007C7.85218 8.25007 7.47064 8.4081 7.18934 8.68941C6.90804 8.97071 6.75 9.35224 6.75 9.75007V24.7501C6.75 35.1421 16.8263 42.5026 23.6362 44.2051C23.875 44.2651 24.125 44.2651 24.3638 44.2051C31.1737 42.5026 41.25 35.1421 41.25 24.7501V9.75007C41.25 9.35224 41.092 8.97071 40.8107 8.68941C40.5294 8.4081 40.1478 8.25007 39.75 8.25007ZM24 33.0001C21.9233 33.0001 19.8932 32.3843 18.1665 31.2305C16.4398 30.0767 15.094 28.4369 14.2993 26.5182C13.5045 24.5996 13.2966 22.4884 13.7018 20.4516C14.1069 18.4148 15.1069 16.5439 16.5754 15.0754C18.0438 13.607 19.9148 12.607 21.9516 12.2018C23.9884 11.7967 26.0996 12.0046 28.0182 12.7993C29.9368 13.5941 31.5767 14.9399 32.7304 16.6666C33.8842 18.3933 34.5 20.4234 34.5 22.5001C34.5 25.2848 33.3938 27.9556 31.4246 29.9247C29.4555 31.8938 26.7848 33.0001 24 33.0001ZM29.5605 16.9396C29.8417 17.2209 29.9997 17.6023 29.9997 18.0001C29.9997 18.3978 29.8417 18.7793 29.5605 19.0606L20.5605 28.0606C20.2793 28.3419 19.8978 28.5 19.5 28.5001C19.4196 28.4998 19.3394 28.4935 19.26 28.4813C19.0253 28.4433 18.803 28.35 18.6115 28.2092C18.4199 28.0683 18.2646 27.884 18.1583 27.6713L16.6583 24.6713C16.4802 24.3155 16.4509 23.9035 16.5766 23.526C16.7023 23.1484 16.9729 22.8363 17.3287 22.6583C17.6846 22.4803 18.0966 22.4509 18.4741 22.5767C18.8516 22.7024 19.1637 22.973 19.3417 23.3288L19.911 24.4681L27.4395 16.9396C27.7208 16.6584 28.1023 16.5004 28.5 16.5004C28.8977 16.5004 29.2792 16.6584 29.5605 16.9396Z" fill="#FF5C00"/>
</svg>
