<svg width="48" height="48" viewBox="0 0 48 48" fill="none" xmlns="http://www.w3.org/2000/svg">
<path d="M7.8563 24.0085C7.8563 17.2364 12.0482 11.4258 17.973 9.03288L20.9962 2.96045C10.6903 4.42454 2.73877 13.3046 2.73877 24.0085C2.73877 33.747 9.32071 41.9766 18.2693 44.4842L18.8508 39.3101C12.4662 37.1559 7.8563 31.1105 7.8563 24.0085Z" fill="#FF5C00"/>
<path d="M45.2612 24.0085C45.2612 14.272 38.6821 6.04393 29.7365 3.53442L29.1419 8.70473C35.5302 10.8568 40.1437 16.904 40.1437 24.0085C40.1437 30.7411 36.0005 36.5233 30.1304 38.942L27.0234 45.0537C37.3197 43.5813 45.2612 34.7056 45.2612 24.0085Z" fill="#FF5C00"/>
<path d="M36.1696 21.432C36.3711 21.0356 36.3521 20.6001 36.1194 20.2211C35.8868 19.8419 35.4739 19.6908 35.029 19.6908H25.3024L27.3962 1.48728C27.4676 0.870139 27.085 0.230768 26.4891 0.053894C26.3662 0.0174316 26.2416 0 26.1186 0C25.6462 0 25.1997 0.26883 24.9798 0.710377L11.8257 27.1418C11.6283 27.5382 11.6501 28.0661 11.8832 28.4429C12.1166 28.8195 12.5279 29.1262 12.971 29.1262H22.5694L20.6018 46.6447C20.533 47.2594 20.9138 47.7764 21.5064 47.9536C21.6281 47.9901 21.7514 48 21.8731 48C22.3446 48 22.7911 47.7382 23.0139 47.2999L36.1696 21.432Z" fill="#FF5C00"/>
</svg>
