<svg width="48" height="48" viewBox="0 0 48 48" fill="none" xmlns="http://www.w3.org/2000/svg">
<path d="M44.2519 34.3021H42.8547V32.5379C42.8547 28.3607 39.4564 24.9626 35.2793 24.9626H25.7204V18.4382H29.911C31.9777 18.4382 33.6591 16.7568 33.6591 14.69V5.59173C33.6591 3.52501 31.9777 1.84351 29.911 1.84351H18.7147C16.648 1.84351 14.9666 3.52492 14.9666 5.59173V14.6899C14.9666 16.7566 16.648 18.4381 18.7147 18.4381H22.9053V24.9625H12.7832C8.60608 24.9625 5.20792 28.3607 5.20792 32.5378V34.302H3.74823C1.68141 34.3021 0 35.9835 0 38.0503V42.4084C0 44.4751 1.68141 46.1565 3.74823 46.1565H9.48255C11.5493 46.1565 13.2307 44.4751 13.2307 42.4084V38.0503C13.2307 35.9835 11.5493 34.3021 9.48255 34.3021H8.02295V32.5379C8.02295 29.9132 10.1584 27.7777 12.7831 27.7777H22.9052V34.3021H21.4456C19.3788 34.3021 17.6974 35.9835 17.6974 38.0503V42.4084C17.6974 44.4751 19.3788 46.1565 21.4456 46.1565H27.18C29.2467 46.1565 30.9281 44.4751 30.9281 42.4084V38.0503C30.9281 35.9835 29.2467 34.3021 27.18 34.3021H25.7204V27.7777H35.2794C37.9042 27.7777 40.0397 29.9132 40.0397 32.5379V34.3021H38.5175C36.4507 34.3021 34.7693 35.9835 34.7693 38.0503V42.4084C34.7693 44.4751 36.4507 46.1565 38.5175 46.1565H44.2518C46.3186 46.1565 48 44.4751 48 42.4084V38.0503C48.0001 35.9835 46.3187 34.3021 44.2519 34.3021Z" fill="#FF5C00"/>
</svg>
