<svg width="48" height="48" viewBox="0 0 48 48" fill="none" xmlns="http://www.w3.org/2000/svg">
<path fill-rule="evenodd" clip-rule="evenodd" d="M25.6484 4.39102C24.571 4.0832 23.429 4.0832 22.3516 4.39102L12.3517 7.24816C9.77586 7.9841 8 10.3384 8 13.0173V23.7662C8 29.5794 10.8074 35.0346 15.5377 38.4134L20.5126 41.9668C22.5988 43.457 25.4012 43.457 27.4874 41.9668L32.4622 38.4134C37.1926 35.0346 40 29.5794 40 23.7662V13.0173C40 10.3384 38.2242 7.9841 35.6484 7.24816L25.6484 4.39102ZM31.3678 16.5409C32.1738 17.2964 32.2146 18.5621 31.459 19.3679L23.959 27.3678C23.2426 28.1322 22.0578 28.214 21.243 27.5556L16.743 23.9192C15.8838 23.225 15.7502 21.9658 16.4444 21.1066C17.1387 20.2474 18.3979 20.1138 19.257 20.808L22.3118 23.2766L28.541 16.6321C29.2964 15.8263 30.562 15.7855 31.3678 16.5409Z" fill="#FF5C00"/>
</svg>
