<svg width="48" height="48" viewBox="0 0 48 48" fill="none" xmlns="http://www.w3.org/2000/svg">
<path d="M41 6H7C6.447 6 6 6.448 6 7V41C6 41.552 6.447 42 7 42H41C41.553 42 42 41.552 42 41V7C42 6.448 41.553 6 41 6ZM11 38C10.448 38 10 37.552 10 37C10 36.448 10.448 36 11 36C11.552 36 12 36.448 12 37C12 37.552 11.553 38 11 38ZM11 12C10.448 12 10 11.552 10 11C10 10.448 10.448 10 11 10C11.552 10 12 10.448 12 11C12 11.552 11.553 12 11 12ZM15.708 28.707C15.317 29.097 14.685 29.098 14.294 28.707C13.903 28.316 13.903 27.683 14.294 27.293L22.294 19.293C22.684 18.902 23.317 18.902 23.708 19.293C24.099 19.684 24.099 20.317 23.708 20.707L15.708 28.707ZM33.707 20.707L25.707 28.707C25.317 29.098 24.684 29.098 24.293 28.707C23.902 28.316 23.902 27.683 24.293 27.293L32.293 19.293C32.684 18.903 33.316 18.902 33.707 19.293C34.098 19.683 34.098 20.316 33.707 20.707ZM37 38C36.448 38 36 37.552 36 37C36 36.448 36.448 36 37 36C37.552 36 38 36.448 38 37C38 37.552 37.553 38 37 38ZM37 12C36.448 12 36 11.552 36 11C36 10.448 36.448 10 37 10C37.552 10 38 10.448 38 11C38 11.552 37.553 12 37 12Z" fill="#FF5C00"/>
</svg>
