<svg width="48" height="48" viewBox="0 0 48 48" fill="none" xmlns="http://www.w3.org/2000/svg">
<path d="M26.25 40.5H38.25V45H26.25V40.5Z" fill="#FF5C00"/>
<path d="M44.82 18.6223C44.8179 18.2789 44.6984 17.9465 44.4813 17.6803C44.2643 17.4142 43.9627 17.2302 43.6267 17.1591C43.2322 17.0981 42.8292 17.1876 42.4976 17.4099C42.166 17.6322 41.93 17.971 41.8365 18.3591L39.7732 26.0466C40.0097 26.7269 39.9988 27.4688 39.7424 28.1419C39.4861 28.815 39.0006 29.3762 38.3715 29.7268L34.1715 32.1471C34.0861 32.1963 33.9919 32.2282 33.8941 32.2411C33.7964 32.2539 33.6971 32.2473 33.6019 32.2218C33.5067 32.1962 33.4174 32.1521 33.3393 32.0921C33.2611 32.0321 33.1955 31.9572 33.1462 31.8718C33.097 31.7864 33.0651 31.6922 33.0522 31.5944C33.0394 31.4967 33.046 31.3974 33.0715 31.3022C33.0971 31.207 33.1412 31.1177 33.2012 31.0396C33.2613 30.9614 33.3361 30.8958 33.4215 30.8466L37.6215 28.4263C37.9712 28.2364 38.236 27.9212 38.3627 27.544C38.4895 27.1668 38.4688 26.7556 38.3048 26.3931C38.1809 26.1451 37.9898 25.937 37.7534 25.7923C37.517 25.6476 37.2447 25.5723 36.9675 25.5748C36.7043 25.5749 36.4457 25.6439 36.2175 25.7751L31.095 28.7803C30.3065 29.2448 29.6525 29.9067 29.1975 30.7007C28.7424 31.4948 28.5021 32.3936 28.5 33.3088V38.9998H36V38.1298C35.9996 37.5884 36.1164 37.0533 36.3425 36.5613C36.5685 36.0693 36.8984 35.6322 37.3095 35.2798L40.8068 32.2798C41.1515 31.9853 41.3987 31.5929 41.5155 31.1548L44.7705 19.0093C44.804 18.8831 44.8207 18.7529 44.82 18.6223Z" fill="#FF5C00"/>
<path d="M4.37322 17.1591C4.03724 17.2303 3.7357 17.4143 3.51865 17.6804C3.3016 17.9466 3.1821 18.279 3.17997 18.6224C3.17902 18.754 3.19567 18.8852 3.22947 19.0124L6.48447 31.1624C6.60099 31.6007 6.8482 31.9931 7.19322 32.2874L10.6905 35.2874C11.1006 35.6389 11.4299 36.0749 11.6559 36.5655C11.8819 37.0561 11.9993 37.5897 12 38.1299V38.9999H19.5V33.3089C19.4982 32.3939 19.258 31.4952 18.8033 30.7013C18.3485 29.9074 17.6948 29.2456 16.9065 28.7811L11.775 25.7714C11.5478 25.6421 11.2908 25.5743 11.0295 25.5749C10.7518 25.5734 10.4792 25.6499 10.2429 25.7958C10.0066 25.9417 9.81607 26.151 9.69297 26.3999C9.52901 26.7625 9.5084 27.1738 9.63529 27.551C9.76219 27.9282 10.0272 28.2434 10.377 28.4331L14.577 30.8534C14.6624 30.9026 14.7372 30.9682 14.7973 31.0464C14.8573 31.1246 14.9014 31.2138 14.9269 31.309C14.9525 31.4042 14.959 31.5035 14.9462 31.6013C14.9334 31.699 14.9015 31.7933 14.8522 31.8786C14.803 31.964 14.7374 32.0389 14.6592 32.0989C14.581 32.159 14.4918 32.203 14.3966 32.2286C14.3014 32.2542 14.2021 32.2607 14.1044 32.2479C14.0066 32.2351 13.9124 32.2031 13.827 32.1539L9.62697 29.7336C8.99765 29.383 8.51212 28.8217 8.25574 28.1484C7.99936 27.4752 7.98855 26.7331 8.22522 26.0526L6.16347 18.3621C6.07011 17.9738 5.83431 17.6346 5.50276 17.4118C5.17121 17.189 4.76809 17.0988 4.37322 17.1591Z" fill="#FF5C00"/>
<path d="M9.75 40.5H21.75V45H9.75V40.5Z" fill="#FF5C00"/>
<path d="M25.3575 3.76788L24 3.08838L22.65 3.76338C21.2237 4.47991 19.6431 4.83452 18.0474 4.79593C16.4517 4.75735 14.89 4.32676 13.5 3.54213V11.6999C13.4967 14.8271 14.3451 17.8961 15.9541 20.5776C17.563 23.2591 19.8719 25.4518 22.6328 26.9204L24 27.6501L25.3673 26.9204C28.1283 25.4519 30.4372 23.2592 32.0462 20.5777C33.6552 17.8962 34.5035 14.8271 34.5 11.6999V3.54213C33.1113 4.32624 31.5512 4.75694 29.9569 4.7963C28.3627 4.83567 26.7832 4.4825 25.3575 3.76788ZM32.0918 6.04188C32.2012 6.01826 32.3145 6.01943 32.4235 6.04533C32.5324 6.07122 32.6341 6.12117 32.7212 6.19151C32.8083 6.26185 32.8786 6.3508 32.9268 6.45184C32.9751 6.55287 33.0001 6.66342 33 6.77538V11.6999C33.0032 14.5551 32.2287 17.3573 30.7596 19.8056C29.2905 22.2539 27.1824 24.2559 24.6615 25.5966L24.3525 25.7616C24.2439 25.8195 24.1227 25.8498 23.9996 25.8498C23.8766 25.8498 23.7554 25.8195 23.6468 25.7616L23.3385 25.5966C20.8176 24.2559 18.7095 22.2539 17.2404 19.8056C15.7713 17.3573 14.9968 14.5551 15 11.6999V6.77463C15 6.66267 15.025 6.55212 15.0732 6.45109C15.1214 6.35005 15.1917 6.2611 15.2788 6.19076C15.3659 6.12042 15.4676 6.07047 15.5766 6.04458C15.6855 6.01868 15.7988 6.01751 15.9083 6.04113C18.412 6.57477 21.0226 6.2454 23.3153 5.10663L23.6618 4.93338C23.7664 4.88063 23.882 4.85315 23.9993 4.85315C24.1165 4.85315 24.2321 4.88063 24.3368 4.93338L24.6908 5.10963C26.9821 6.24599 29.5902 6.57452 32.0918 6.04188Z" fill="#FF5C00"/>
<path d="M24 6.44238L23.9888 6.44838C21.6723 7.59981 19.0623 8.02561 16.5 7.67013V11.6999C16.4972 14.2747 17.1933 16.8019 18.5142 19.0121C19.835 21.2223 21.7311 23.0325 24 24.2496C26.269 23.0325 28.165 21.2223 29.4858 19.0121C30.8067 16.8019 31.5028 14.2747 31.5 11.6999V7.67088C28.9392 8.02665 26.3307 7.60109 24.0158 6.44988L24 6.44238ZM29.3055 10.4466C29.4461 10.5873 29.5251 10.778 29.5251 10.9769C29.5251 11.1758 29.4461 11.3665 29.3055 11.5071L23.0325 17.7801C22.8919 17.9207 22.7011 17.9997 22.5023 17.9997C22.3034 17.9997 22.1127 17.9207 21.972 17.7801L19.1003 14.9084C18.9636 14.7669 18.888 14.5775 18.8898 14.3808C18.8915 14.1842 18.9703 13.9961 19.1094 13.857C19.2485 13.718 19.4366 13.6391 19.6332 13.6374C19.8299 13.6357 20.0193 13.7113 20.1608 13.8479L22.5 16.1894L28.2428 10.4466C28.3834 10.306 28.5741 10.227 28.773 10.227C28.9719 10.227 29.1626 10.306 29.3033 10.4466H29.3055Z" fill="#FF5C00"/>
</svg>
