<svg width="48" height="48" viewBox="0 0 48 48" fill="none" xmlns="http://www.w3.org/2000/svg">
<path d="M18.5951 20.836C18.1735 20.968 17.9383 21.4168 18.0695 21.8384C18.2887 22.5408 18.3999 23.268 18.3999 24C18.3999 24.732 18.2887 25.4592 18.0695 26.1616C17.9383 26.5832 18.1735 27.032 18.5951 27.164C18.6751 27.188 18.7543 27.2 18.8335 27.2C19.1751 27.2 19.4903 26.9808 19.5975 26.6384C19.8647 25.7824 19.9999 24.8936 19.9999 24C19.9999 23.1064 19.8647 22.2176 19.5975 21.3616C19.4655 20.9408 19.0199 20.7064 18.5951 20.836Z" fill="#FF5C00"/>
<path d="M21.94 18.0689C21.7568 17.6665 21.2808 17.4865 20.8808 17.6721C20.4784 17.8553 20.3008 18.3297 20.484 18.7313C20.9008 19.6473 21.6008 21.5489 21.6008 24.0001C21.6008 26.4513 20.9016 28.3529 20.484 29.2689C20.3008 29.6705 20.4784 30.1457 20.8808 30.3281C20.988 30.3777 21.1 30.4001 21.2112 30.4001C21.5152 30.4001 21.8056 30.2257 21.94 29.9313C22.4104 28.8977 23.2 26.7529 23.2 24.0001C23.2 21.2473 22.4104 19.1025 21.94 18.0689Z" fill="#FF5C00"/>
<path d="M22.7503 14.5391C22.3855 14.7871 22.2903 15.2839 22.5375 15.6495C22.5599 15.6831 24.7991 19.0527 24.7991 23.9999C24.7991 28.9471 22.5599 32.3167 22.5375 32.3503C22.2895 32.7159 22.3855 33.2127 22.7503 33.4607C22.8887 33.5543 23.0447 33.5999 23.1999 33.5999C23.4551 33.5999 23.7063 33.4775 23.8607 33.2503C23.9647 33.0983 26.3999 29.4631 26.3999 23.9999C26.3999 18.5367 23.9647 14.9015 23.8607 14.7495C23.6111 14.3855 23.1167 14.2903 22.7503 14.5391Z" fill="#FF5C00"/>
<path d="M35.7977 15.4688L30.9833 10.0528C31.3969 10.1112 31.7945 9.84564 31.8793 9.42964C31.9673 8.99684 31.6889 8.57444 31.2561 8.48564L28.9609 8.01684C28.7129 7.96564 28.4569 8.03444 28.2697 8.20164C28.0817 8.36884 27.9833 8.61524 28.0033 8.86564L28.1961 11.2008C28.2313 11.6184 28.5809 11.9352 28.9929 11.9352C29.0145 11.9352 29.0377 11.9352 29.0593 11.9328C29.4849 11.8976 29.7969 11.5336 29.7865 11.1128L34.1457 16.0176L32.4289 18.0776L30.9849 16.4528C31.3985 16.5112 31.7961 16.2456 31.8809 15.8296C31.9689 15.3968 31.6905 14.9744 31.2577 14.8856L28.9625 14.4168C28.7145 14.3656 28.4585 14.4344 28.2713 14.6016C28.0833 14.7688 27.9849 15.0152 28.0049 15.2656L28.1977 17.6008C28.2329 18.0184 28.5825 18.3352 28.9945 18.3352C29.0161 18.3352 29.0393 18.3352 29.0609 18.3328C29.4865 18.2976 29.7985 17.9336 29.7881 17.5128L31.3945 19.32L30.5881 20.288C30.3049 20.628 30.3513 21.1328 30.6905 21.4152C30.8409 21.5392 31.0217 21.6 31.2025 21.6C31.4321 21.6 31.6593 21.5024 31.8185 21.3128L32.4705 20.5304L34.1481 22.4176L30.5889 26.688C30.3057 27.028 30.3521 27.5328 30.6913 27.8152C30.8417 27.9392 31.0225 28 31.2033 28C31.4329 28 31.6601 27.9024 31.8193 27.7128L35.8193 22.9128C36.0721 22.608 36.0657 22.164 35.8025 21.8688L33.5073 19.2872L35.8193 16.5128C36.0721 16.208 36.0657 15.764 35.8025 15.4688H35.7977Z" fill="#FF5C00"/>
<path d="M45.5999 1.6001H40.7375C40.5271 2.7193 39.9511 3.4945 39.4415 4.1785C38.8831 4.9289 38.3999 5.5769 38.3999 6.6001C38.3999 7.6233 38.8831 8.2721 39.4415 9.0217C40.0783 9.8761 40.7999 10.8457 40.7999 12.4001C40.7999 13.9545 40.0783 14.9233 39.4415 15.7785C38.8831 16.5289 38.3999 17.1761 38.3999 18.2001C38.3999 19.2241 38.8831 19.8721 39.4415 20.6217C40.0783 21.4761 40.7999 22.4457 40.7999 24.0001C40.7999 25.5545 40.0783 26.5233 39.4415 27.3785C38.8831 28.1289 38.3999 28.7761 38.3999 29.8001C38.3999 30.8241 38.8831 31.4721 39.4415 32.2217C40.0783 33.0761 40.7999 34.0457 40.7999 35.6001C40.7999 37.1545 40.0783 38.1233 39.4415 38.9785C38.8831 39.7289 38.3999 40.3761 38.3999 41.4001C38.3999 42.4241 38.8831 43.0721 39.4415 43.8217C39.9511 44.5057 40.5287 45.2817 40.7279 46.3801L45.5999 46.3993C46.0415 46.3993 46.3999 46.0409 46.3999 45.5993V2.4001C46.3999 1.9585 46.0415 1.6001 45.5999 1.6001Z" fill="#FF5C00"/>
<path d="M14.0217 14.4615C13.8089 14.3719 13.4937 14.3567 13.2473 14.5911L7.99927 19.5447V28.4543L13.2449 33.4055C13.4945 33.6439 13.8105 33.6279 14.0217 33.5375C14.1361 33.4879 14.4001 33.3391 14.4001 33.0007V14.9975C14.4001 14.6591 14.1361 14.5111 14.0217 14.4615Z" fill="#FF5C00"/>
<path d="M1.6001 20.8V27.2C1.6001 27.6416 1.9585 28 2.4001 28H6.4001V20H2.4001C1.9585 20 1.6001 20.3584 1.6001 20.8Z" fill="#FF5C00"/>
</svg>
