<svg width="48" height="48" viewBox="0 0 48 48" fill="none" xmlns="http://www.w3.org/2000/svg">
<path d="M24.1457 23.9404L17.0269 28.0524L17.0571 38.8967L24.1749 34.7898L24.1457 23.9404Z" fill="#FF5C00"/>
<path d="M32.3436 30.0769L32.2886 10.1077L25.074 14.2704L25.1278 34.2402L32.3436 30.0769Z" fill="#FF5C00"/>
<path d="M13.654 17.5552C13.5601 17.5007 10.8016 15.8974 10.9714 15.9961L11.0506 44.1715L13.7334 45.7309C13.714 38.8428 13.6726 24.14 13.654 17.5552Z" fill="#FF5C00"/>
<path d="M36.479 3.82595L33.7916 2.26416C2.26619 20.4652 14.3015 13.5167 11.4429 15.1671L14.131 16.7292C18.601 14.1483 28.9182 8.19138 36.479 3.82595Z" fill="#FF5C00"/>
<path d="M24.1212 14.8201L17.0015 18.9281L17.0239 26.9521L24.1429 22.8401L24.1212 14.8201Z" fill="#FF5C00"/>
<path d="M36.9571 4.65259C31.6824 7.69791 19.8587 14.5244 14.6084 17.5556C14.6148 19.8292 14.6777 42.077 14.6881 45.7359L37.0363 32.8338L36.9571 4.65259ZM35.3599 32.1488L16.829 42.8456C16.5153 43.0263 16.1154 42.8034 16.1133 42.4342C16.0849 32.3441 16.063 24.6074 16.0463 18.6546C16.0463 18.4837 16.1366 18.3252 16.2848 18.24L34.8148 7.54367C35.1339 7.36001 35.5293 7.58831 35.5313 7.95508L35.5984 31.7342C35.5996 31.9292 35.4533 32.0948 35.3599 32.1488Z" fill="#FF5C00"/>
<path d="M17.0603 39.9962L17.0648 41.6075L34.182 31.7268L32.8167 30.9053L17.0603 39.9962Z" fill="#FF5C00"/>
<path d="M33.2417 9.55492L33.298 30.0817L34.6418 30.8902L34.58 8.78247L33.2417 9.55492Z" fill="#FF5C00"/>
</svg>
