<svg width="48" height="48" viewBox="0 0 48 48" fill="none" xmlns="http://www.w3.org/2000/svg">
<path d="M43.3319 10.1503L42.0644 9.48278C41.6685 9.26931 41.3666 8.91553 41.2181 8.4909C41.0697 8.06628 41.0853 7.60148 41.2619 7.18778L41.8319 5.87528C41.8893 5.73786 41.9046 5.58648 41.8758 5.44037C41.8469 5.29426 41.7753 5.16002 41.67 5.05471C41.5647 4.94941 41.4305 4.87778 41.2844 4.84895C41.1382 4.82012 40.9869 4.83537 40.8494 4.89278L39.5369 5.46278C39.1232 5.63943 38.6584 5.65505 38.2338 5.50657C37.8092 5.35809 37.4554 5.05624 37.2419 4.66028L36.5669 3.39278C36.4948 3.26275 36.3858 3.15703 36.2536 3.08898C36.1214 3.02092 35.972 2.9936 35.8243 3.01047C35.6766 3.02733 35.5372 3.08763 35.4237 3.18372C35.3103 3.27982 35.2279 3.4074 35.1869 3.55033L34.8119 4.93027C34.6917 5.36311 34.4147 5.73572 34.0348 5.97555C33.6549 6.21539 33.1994 6.3053 32.7569 6.22777L31.3469 5.95777C31.1987 5.9303 31.0456 5.94803 30.9076 6.00867C30.7695 6.06931 30.6529 6.17005 30.5728 6.29782C30.4928 6.42559 30.453 6.57447 30.4586 6.72514C30.4642 6.87582 30.5151 7.02131 30.6044 7.14274L31.4519 8.29774C31.7155 8.66035 31.8339 9.10839 31.7839 9.55386C31.734 9.99933 31.5193 10.41 31.1819 10.7052L30.0944 11.6427C29.9832 11.7429 29.9042 11.8738 29.8672 12.0188C29.8303 12.1639 29.8371 12.3166 29.8868 12.4578C29.9366 12.599 30.027 12.7223 30.1467 12.8121C30.2664 12.902 30.41 12.9544 30.5595 12.9627L31.992 13.0152C32.4406 13.0367 32.8651 13.2246 33.1826 13.5421C33.5002 13.8597 33.688 14.2842 33.7095 14.7327L33.762 16.1652C33.7705 16.3147 33.8233 16.4582 33.9135 16.5776C34.0038 16.697 34.1274 16.7869 34.2688 16.8359C34.4102 16.8849 34.563 16.8908 34.7078 16.8528C34.8526 16.8149 34.9828 16.7348 35.082 16.6227L36.0195 15.5427C36.3137 15.2038 36.7246 14.988 37.1705 14.9379C37.6165 14.8879 38.065 15.0074 38.427 15.2727L39.582 16.1202C39.7041 16.2064 39.8489 16.2545 39.9983 16.2586C40.1476 16.2627 40.2949 16.2226 40.4215 16.1432C40.5481 16.0639 40.6484 15.9489 40.7099 15.8127C40.7714 15.6765 40.7912 15.5252 40.7669 15.3777L40.5045 13.9677C40.4222 13.5258 40.5092 13.0691 40.7482 12.6884C40.9872 12.3076 41.3607 12.0308 41.7945 11.9127L43.1745 11.5377C43.318 11.4963 43.446 11.4133 43.5424 11.2992C43.6388 11.1851 43.6993 11.045 43.7161 10.8965C43.733 10.7481 43.7055 10.598 43.6371 10.4652C43.5687 10.3324 43.4625 10.2228 43.3319 10.1503ZM36.5894 12.7303C35.8856 12.7238 35.2127 12.4397 34.7173 11.9396C34.2218 11.4396 33.9439 10.7642 33.9439 10.0603C33.9439 9.35634 34.2218 8.68091 34.7173 8.18089C35.2128 7.68088 35.8856 7.39674 36.5895 7.39028C37.2935 7.39664 37.9664 7.68075 38.462 8.18079C38.9575 8.68083 39.2355 9.35633 39.2355 10.0603C39.2355 10.7643 38.9575 11.4398 38.4619 11.9398C37.9664 12.4398 37.2934 12.7239 36.5894 12.7303Z" fill="#FF5C00"/>
<path d="M36.5899 8.89038C36.2825 8.89479 35.9891 9.02 35.7733 9.23895C35.5575 9.45789 35.4365 9.75297 35.4365 10.0604C35.4365 10.3678 35.5575 10.6629 35.7734 10.8819C35.9892 11.1008 36.2825 11.226 36.5899 11.2304C36.8973 11.226 37.1906 11.1008 37.4064 10.8818C37.6223 10.6629 37.7433 10.3678 37.7432 10.0604C37.7432 9.75292 37.6222 9.45784 37.4064 9.23891C37.1906 9.01998 36.8973 8.89478 36.5899 8.89038Z" fill="#FF5C00"/>
<path d="M27.0419 22.0978C24.5894 21.8128 23.6219 19.2703 23.3219 18.1978C23.2478 17.9305 23.0881 17.6948 22.8673 17.5269C22.6466 17.3589 22.3768 17.2679 22.0994 17.2678H10.3619C10.0859 17.2689 9.81755 17.3594 9.59718 17.5257C9.37681 17.692 9.21621 17.9252 9.13943 18.1904C8.83943 19.2704 7.87193 21.8128 5.42693 22.0979C5.13356 22.1337 4.86197 22.2711 4.65924 22.4861C4.45651 22.7012 4.33541 22.9804 4.31693 23.2754C4.15943 25.6754 3.95693 38.0129 15.5894 44.8229C15.7858 44.9353 16.0081 44.9944 16.2344 44.9944C16.4607 44.9944 16.6831 44.9353 16.8794 44.8229C28.5044 38.0129 28.3019 25.6754 28.1444 23.2679C28.1261 22.9748 28.0059 22.6974 27.8045 22.4837C27.6031 22.27 27.3334 22.1335 27.0419 22.0978ZM16.6544 41.5828C16.5285 41.6654 16.3813 41.7095 16.2307 41.7095C16.0801 41.7095 15.9328 41.6654 15.8069 41.5828C8.53193 36.6328 7.25693 29.1553 7.14443 25.1428C7.14161 24.994 7.18282 24.8477 7.26289 24.7223C7.34295 24.5969 7.45829 24.4979 7.59443 24.4378C9.2708 23.6492 10.5959 22.2679 11.3144 20.5603C11.3735 20.4308 11.4685 20.3209 11.5881 20.2438C11.7078 20.1667 11.8471 20.1256 11.9894 20.1253H20.4719C20.6151 20.1265 20.755 20.1679 20.8757 20.2448C20.9964 20.3217 21.093 20.4311 21.1544 20.5603C21.8701 22.2673 23.1927 23.6487 24.8669 24.4378C25.004 24.4966 25.1202 24.5953 25.2005 24.721C25.2807 24.8468 25.3213 24.9937 25.3169 25.1428C25.2044 29.1553 23.9369 36.6328 16.6544 41.5828Z" fill="#FF5C00"/>
<path d="M19.9995 21.6252H12.462C11.6401 23.3081 10.3134 24.6925 8.66699 25.5852C8.7429 28.4128 9.4642 31.1857 10.7758 33.6918C12.0874 36.198 13.9545 38.3711 16.2345 40.0452C18.5132 38.3699 20.3794 36.1965 21.6909 33.6906C23.0023 31.1847 23.7244 28.4125 23.802 25.5852C22.1518 24.6951 20.822 23.3102 19.9995 21.6252ZM15.9345 30.3328C15.9648 30.9021 15.769 31.4603 15.3898 31.8859C15.0105 32.3115 14.4785 32.57 13.9095 32.6053H13.272C12.703 32.57 12.171 32.3115 11.7917 31.8859C11.4125 31.4602 11.2167 30.902 11.247 30.3328V27.8353C11.2499 27.6383 11.3302 27.4504 11.4706 27.3121C11.6109 27.1738 11.8 27.0963 11.997 27.0963C12.194 27.0963 12.3831 27.1738 12.5234 27.3121C12.6638 27.4504 12.7441 27.6383 12.747 27.8353V30.3328C12.747 30.7903 13.0245 31.1053 13.272 31.1053H13.9095C14.157 31.1053 14.4345 30.7903 14.4345 30.3328V27.8353C14.4345 27.6364 14.5135 27.4456 14.6542 27.305C14.7948 27.1643 14.9856 27.0853 15.1845 27.0853C15.3834 27.0853 15.5742 27.1643 15.7148 27.305C15.8555 27.4456 15.9345 27.6364 15.9345 27.8353V30.3328ZM22.2045 28.1352L20.652 31.6677C20.5638 31.9028 20.4033 32.1039 20.1936 32.242C19.9839 32.3801 19.7359 32.4483 19.4851 32.4366C19.2342 32.4249 18.9936 32.334 18.7976 32.177C18.6017 32.02 18.4606 31.8049 18.3945 31.5627L17.172 28.0828C17.1073 27.896 17.1191 27.6912 17.2051 27.5131C17.291 27.3351 17.4439 27.1984 17.6305 27.1329C17.817 27.0674 18.0219 27.0785 18.2002 27.1638C18.3786 27.249 18.5159 27.4015 18.582 27.5878L19.572 30.3928L20.832 27.5353C20.9135 27.3562 21.0622 27.2164 21.2459 27.1461C21.4296 27.0757 21.6336 27.0804 21.8138 27.1592C21.994 27.238 22.136 27.3845 22.2091 27.5672C22.2822 27.7498 22.2806 27.9538 22.2045 28.1352Z" fill="#FF5C00"/>
<path d="M34.209 21.8603C34.0132 21.8955 33.8394 22.007 33.7258 22.1703C33.6122 22.3336 33.5681 22.5354 33.6033 22.7312L33.7513 23.5538L28.5253 19.7231L31.8703 15.7732C31.934 15.6979 31.9823 15.6109 32.0123 15.5171C32.0423 15.4232 32.0536 15.3243 32.0454 15.2261C32.0373 15.1279 32.0099 15.0323 31.9647 14.9447C31.9196 14.8571 31.8577 14.7792 31.7825 14.7155C31.7072 14.6518 31.6202 14.6036 31.5264 14.5736C31.4325 14.5435 31.3337 14.5323 31.2355 14.5404C31.1372 14.5486 31.0416 14.576 30.954 14.6211C30.8664 14.6662 30.7885 14.7282 30.7248 14.8034L26.8606 19.3678C26.7948 19.4468 26.7459 19.5383 26.7167 19.6368C26.6875 19.7353 26.6787 19.8387 26.6908 19.9407C26.703 20.0427 26.7358 20.1411 26.7873 20.23C26.8387 20.3189 26.9078 20.3964 26.9902 20.4577L33.0148 24.8735L32.0154 25.0793C31.8205 25.1195 31.6496 25.2354 31.5403 25.4017C31.431 25.5679 31.3921 25.7707 31.4323 25.9655C31.4726 26.1604 31.5885 26.3312 31.7547 26.4406C31.9209 26.5499 32.1238 26.5887 32.3186 26.5485L34.9736 26.0014C35.1651 25.9619 35.3336 25.8491 35.4432 25.6871C35.5528 25.5251 35.5948 25.3267 35.5603 25.1342L35.0798 22.466C35.0446 22.2702 34.933 22.0965 34.7698 21.9829C34.6065 21.8693 34.4048 21.8252 34.209 21.8603Z" fill="#FF5C00"/>
</svg>
