<svg width="48" height="48" viewBox="0 0 48 48" fill="none" xmlns="http://www.w3.org/2000/svg">
<g clip-path="url(#clip0_79_1621)">
<path d="M21.333 25.6269C21.333 27.0975 22.5295 28.2939 24 28.2939C25.4705 28.2939 26.667 27.0975 26.667 25.6269C26.667 24.522 25.3269 22.3264 24.0006 20.5549C22.674 22.328 21.333 24.5249 21.333 25.6269Z" fill="#FF5C00"/>
<path d="M44.3735 20.3736C42.8723 20.3736 41.5813 21.2906 41.0309 22.5938H36.9084C36.6349 20.066 35.6329 17.7538 34.1175 15.8713L37.0357 12.953C37.4651 13.1282 37.9285 13.2203 38.4062 13.2203C39.3748 13.2203 40.2855 12.8431 40.9706 12.1581C41.6555 11.4731 42.0328 10.5624 42.0328 9.59376C42.0328 8.6251 41.6555 7.71438 40.9706 7.02942C40.2855 6.34446 39.3748 5.96729 38.4062 5.96729C37.4375 5.96729 36.5268 6.34446 35.8418 7.02951C35.1569 7.71448 34.7796 8.62519 34.7796 9.59385C34.7796 10.0715 34.8718 10.5349 35.0469 10.9643L32.1287 13.8826C30.2462 12.3671 27.934 11.3652 25.4063 11.0917V6.96914C26.7095 6.41881 27.6265 5.12783 27.6265 3.62656C27.6265 1.6269 25.9997 0 24 0C22.0004 0 20.3735 1.6269 20.3735 3.62656C20.3735 5.12783 21.2905 6.41881 22.5938 6.96914V11.0917C20.066 11.3651 17.7538 12.367 15.8713 13.8825L12.9531 10.9642C13.1283 10.5349 13.2204 10.0714 13.2204 9.59376C13.2204 8.6251 12.8431 7.71438 12.1582 7.02942C11.4732 6.34446 10.5625 5.9672 9.59385 5.9672C8.62519 5.9672 7.71448 6.34437 7.02951 7.02933C6.34446 7.71429 5.96729 8.62501 5.96729 9.59366C5.96729 10.5623 6.34446 11.473 7.02951 12.158C7.71448 12.843 8.62519 13.2202 9.59385 13.2202C10.0715 13.2202 10.5349 13.1281 10.9643 12.9529L13.8825 15.8712C12.367 17.7537 11.3651 20.0659 11.0917 22.5937H6.96914C6.41881 21.2904 5.12773 20.3735 3.62646 20.3735C1.6269 20.3736 0 22.0004 0 24C0 25.9997 1.6269 27.6265 3.62646 27.6265C5.12773 27.6265 6.41871 26.7095 6.96914 25.4063H11.0917C11.3651 27.9341 12.3671 30.2463 13.8825 32.1288L10.9643 35.0471C10.5349 34.8719 10.0715 34.7798 9.59385 34.7798C8.62519 34.7798 7.71448 35.157 7.02951 35.8419C6.34446 36.5269 5.96729 37.4376 5.96729 38.4063C5.96729 39.3751 6.34446 40.2857 7.02951 40.9707C7.71448 41.6556 8.62519 42.0329 9.59385 42.0329C10.5625 42.0329 11.4732 41.6557 12.1582 40.9707C12.8431 40.2857 13.2204 39.375 13.2204 38.4063C13.2204 37.9287 13.1283 37.4652 12.9531 37.0359L15.8713 34.1176C17.7538 35.6331 20.066 36.635 22.5938 36.9084V41.031C21.2905 41.5813 20.3735 42.8723 20.3735 44.3735C20.3735 46.3732 22.0004 48.0001 24 48.0001C25.9997 48.0001 27.6266 46.3732 27.6266 44.3735C27.6266 42.8723 26.7096 41.5813 25.4063 41.031V36.9084C27.9341 36.635 30.2463 35.6331 32.1288 34.1176L35.047 37.0359C34.8718 37.4652 34.7797 37.9287 34.7797 38.4063C34.7797 39.375 35.157 40.2857 35.8419 40.9707C36.5269 41.6556 37.4376 42.0329 38.4062 42.0329C39.3749 42.0329 40.2856 41.6557 40.9707 40.9707C41.6556 40.2857 42.0329 39.375 42.0329 38.4063C42.0329 37.4377 41.6556 36.527 40.9707 35.842C40.2856 35.157 39.3749 34.7798 38.4062 34.7798C37.9286 34.7798 37.4652 34.8719 37.0358 35.0471L34.1176 32.1288C35.6331 30.2463 36.635 27.9341 36.9084 25.4063H41.031C41.5813 26.7096 42.8724 27.6265 44.3736 27.6265C46.3732 27.6265 48.0001 25.9997 48.0001 24C48.0001 22.0004 46.3731 20.3736 44.3735 20.3736ZM24 31.1065C20.9786 31.1065 18.5205 28.6484 18.5205 25.6269C18.5205 24.2594 19.2651 22.4894 20.7972 20.2159C21.8485 18.6557 22.8876 17.437 22.9314 17.3858L24 16.1361L25.0687 17.3858C25.1125 17.4369 26.1516 18.6557 27.2029 20.2159C28.735 22.4894 29.4796 24.2594 29.4796 25.6269C29.4796 28.6483 27.0214 31.1065 24 31.1065Z" fill="#FF5C00"/>
</g>
<defs>
<clipPath id="clip0_79_1621">
<rect width="48" height="48" fill="white"/>
</clipPath>
</defs>
</svg>
