<svg width="48" height="48" viewBox="0 0 48 48" fill="none" xmlns="http://www.w3.org/2000/svg">
<path d="M18.2655 9.6095L18.6693 9.10721C20.9758 6.22378 22.9121 3.70721 23.9253 2.37521C24.0688 2.18753 24.3372 2.15149 24.5253 2.29464C28.7081 5.55178 32.5173 11.5141 31.7192 17.8946C31.486 19.8079 30.989 21.6797 30.2424 23.4566C28.7422 24.0542 27.3295 24.8514 26.0424 25.8266C24.1259 27.2474 22.5395 29.0662 21.3924 31.1581C21.3799 31.1817 21.3687 31.206 21.359 31.2309C21.1057 31.7336 20.8897 32.2541 20.7127 32.7884C20.5413 32.5312 20.3612 32.2826 20.1727 32.0392C19.5907 28.0106 18.9615 18.2049 24.701 9.91721C24.9568 9.52831 24.8555 9.00629 24.4727 8.74133C24.09 8.47638 23.5657 8.56537 23.2918 8.94178C18.1018 16.4349 17.8198 25.0441 18.227 30.0446C17.0884 29.127 15.8296 28.3697 14.4855 27.7938C10.1287 19.7092 15.0152 13.6398 18.2655 9.6095ZM4.24096 37.3775C3.19804 34.3474 1.99141 31.3762 0.626391 28.4769C0.571312 28.3559 0.575522 28.2162 0.637788 28.0987C0.700054 27.9812 0.813321 27.8993 0.944391 27.8769C7.31468 26.8852 16.7715 28.5395 19.8015 34.6055C20.4907 36.0793 21.0032 37.6295 21.3281 39.2238C18.7712 35.6366 14.3595 31.9552 5.32268 30.0189C4.8597 29.9195 4.4038 30.2142 4.30439 30.6772C4.20498 31.1402 4.4997 31.5961 4.96268 31.6955C17.0064 34.2764 20.1555 40.1864 21.4978 42.7809L21.5038 42.7929V42.7989C21.5119 42.8191 21.5211 42.8388 21.5312 42.8581C21.7479 43.2708 21.9411 43.6955 22.1098 44.1301C22.1707 44.7104 22.2118 45.2015 22.2392 45.5649C9.50553 48.6566 5.41611 40.9038 4.24096 37.3775ZM43.7681 34.7735C41.519 40.7735 32.9681 47.5989 23.9595 45.5324C23.8987 44.6564 23.7504 42.9858 23.4307 41.0478C24.1301 38.3838 26.3878 30.9335 43.9215 26.5458C44.2249 26.4775 44.4675 26.2503 44.5555 25.952C44.6435 25.6538 44.563 25.3313 44.3452 25.1093C44.1275 24.8873 43.8066 24.8007 43.5067 24.8829C32.4855 27.6378 25.6712 31.9201 22.7827 37.9175C22.5518 36.9901 22.2655 36.0773 21.9255 35.1841C22.0556 34.0553 22.3933 32.9603 22.9215 31.9544C22.9335 31.9322 22.9441 31.9093 22.9532 31.8858C23.9875 30.0405 25.4018 28.436 27.1027 27.1784C28.3589 26.2282 29.7443 25.4622 31.217 24.9035H31.2238C36.9795 22.6441 44.111 22.7606 47.2061 22.9458C47.3363 22.9528 47.4559 23.0196 47.5303 23.1266C47.6047 23.2337 47.6255 23.3691 47.5867 23.4935C46.9138 25.6946 45.5407 30.0489 43.7681 34.7735Z" fill="#FF5C00"/>
</svg>
