<svg width="48" height="48" viewBox="0 0 48 48" fill="fill-blue-500" xmlns="http://www.w3.org/2000/svg">
<path fill-rule="evenodd" clip-rule="evenodd" d="M23.9999 31.3526L5.14073 23.7499L10.55 21.5693L23.5073 26.7927C23.8234 26.9202 24.1765 26.9202 24.4925 26.7927L37.4498 21.5693L42.8591 23.7499L23.9999 31.3526ZM36.6473 34.6418L44.6212 37.8563L23.9999 46.1694L3.37866 37.8563L11.3527 34.6418L23.5072 39.5416C23.8234 39.6691 24.1765 39.6691 24.4926 39.5416L36.6473 34.6418ZM6.05452 31.0852L3.37866 30.0066V24.4603L6.146 25.5759C6.11589 25.6503 6.09904 25.7316 6.09829 25.8167L6.05452 31.0852ZM7.41377 26.0869L9.67993 27.0005C9.64982 27.075 9.63297 27.1562 9.63231 27.2414L9.58854 32.5099L7.32229 31.5963C7.3524 31.5219 7.36925 31.4405 7.37 31.3555L7.41377 26.0869ZM10.9477 27.5116L13.2094 28.4233C13.1793 28.4979 13.1625 28.5791 13.1618 28.6643L13.118 33.9328L10.8563 33.021C10.8864 32.9465 10.9033 32.8652 10.9039 32.7801L10.9477 27.5116ZM14.4772 28.9345L16.7383 29.8459C16.7082 29.9204 16.6913 30.0017 16.6906 30.0868L16.6468 35.3554L14.3858 34.4438C14.4159 34.3693 14.4328 34.2881 14.4334 34.2029L14.4772 28.9345ZM18.006 30.3571L20.2664 31.2682C20.2364 31.3428 20.2195 31.424 20.2188 31.5092L20.175 36.7777L17.9147 35.8664C17.9447 35.7919 17.9616 35.7107 17.9623 35.6255L18.006 30.3571ZM21.5342 31.7794L23.4229 32.5407C23.4004 32.6062 23.388 32.6763 23.3873 32.7492L23.3433 38.0548L21.4428 37.2887C21.4729 37.2142 21.4897 37.133 21.4905 37.0478L21.5342 31.7794ZM24.6573 32.5083L26.8684 31.617L26.8244 36.9099C26.8237 36.9989 26.8407 37.0839 26.8721 37.1618L24.661 38.0531L24.705 32.7602C24.7057 32.6711 24.6887 32.586 24.6573 32.5083ZM28.1405 31.1041L30.3993 30.1936L30.3553 35.4865C30.3546 35.5755 30.3715 35.6606 30.4029 35.7383L28.1443 36.6488L28.1883 31.3559C28.189 31.2669 28.172 31.1819 28.1405 31.1041ZM31.6715 29.6807L33.9296 28.7703L33.8862 34.0017C33.8853 34.1109 33.9111 34.2142 33.9575 34.3054L31.6751 35.2255L31.7192 29.9326C31.7198 29.8436 31.7029 29.7585 31.6715 29.6807ZM35.2018 28.2575L37.4592 27.3475L37.4152 32.6404C37.4144 32.7294 37.4315 32.8145 37.4629 32.8922L35.2056 33.8022L35.2495 28.5093C35.2503 28.4203 35.2332 28.3352 35.2018 28.2575ZM38.7314 26.8346L40.989 25.9245L40.945 31.2175C40.9442 31.3064 40.9613 31.3915 40.9927 31.4692L38.7351 32.3794L38.779 27.0865C38.7798 26.9974 38.7628 26.9124 38.7314 26.8346ZM42.2612 25.4116L44.6212 24.4603V30.0066L42.2649 30.9564L42.3088 25.6635C42.3096 25.5745 42.2925 25.4894 42.2612 25.4116ZM33.4525 7.36666L29.3635 9.52864C29.0421 9.69861 28.6431 9.5756 28.4732 9.25419C28.3032 8.93268 28.4262 8.53372 28.7476 8.36384L33.8033 5.69071C33.8974 5.64083 34.0028 5.61428 34.1113 5.61428C34.2198 5.61428 34.3251 5.64083 34.4192 5.69071L39.4748 8.36384C39.7963 8.53372 39.9193 8.93268 39.7493 9.25419C39.5794 9.5756 39.1805 9.69861 38.8589 9.52864L34.7701 7.36666V14.9817C34.7701 15.3454 34.4749 15.6405 34.1113 15.6405C33.7476 15.6405 33.4525 15.3454 33.4525 14.9817V7.36666ZM23.3411 3.58304L19.2523 5.74492C18.9308 5.9149 18.5318 5.79198 18.3618 5.47047C18.1919 5.14906 18.3148 4.7501 18.6364 4.58012L23.692 1.90699C23.7861 1.85711 23.8914 1.83057 23.9999 1.83057C24.1084 1.83057 24.2138 1.85711 24.3079 1.90699L29.3635 4.58012C29.685 4.7501 29.8079 5.14906 29.6381 5.47047C29.4681 5.79198 29.0691 5.9149 28.7476 5.74492L24.6588 3.58304V15.3997C24.6588 15.7634 24.3635 16.0585 23.9999 16.0585C23.6364 16.0585 23.3411 15.7634 23.3411 15.3997V3.58304ZM13.2298 7.36666L9.14092 9.52864C8.81942 9.69861 8.42045 9.5756 8.25057 9.25419C8.08059 8.93268 8.2036 8.53372 8.52502 8.36384L13.5806 5.69071C13.6748 5.64083 13.7801 5.61428 13.8886 5.61428C13.9971 5.61428 14.1024 5.64083 14.1965 5.69071L19.2523 8.36384C19.5737 8.53372 19.6967 8.93268 19.5267 9.25419C19.3567 9.5756 18.9578 9.69861 18.6364 9.52864L14.5474 7.36666V14.9817C14.5474 15.3454 14.2523 15.6405 13.8886 15.6405C13.525 15.6405 13.2298 15.3454 13.2298 14.9817V7.36666ZM36.0877 13.8176L44.6212 17.2577L23.9999 25.5707L3.37866 17.2577L11.9121 13.8176V14.9817C11.9121 16.0726 12.7978 16.9582 13.8886 16.9582C14.9794 16.9582 15.8651 16.0726 15.8651 14.9817V12.224L22.0235 9.74134V15.3997C22.0235 16.4905 22.9091 17.3762 23.9999 17.3762C25.0908 17.3762 25.9764 16.4905 25.9764 15.3997V9.74134L32.1348 12.224V14.9817C32.1348 16.0726 33.0205 16.9582 34.1113 16.9582C35.2021 16.9582 36.0877 16.0726 36.0877 14.9817V13.8176Z" fill="#FF5C00"/>
</svg>
