<svg width="24" height="24" viewBox="0 0 24 24" fill="none" xmlns="http://www.w3.org/2000/svg">
<circle cx="12" cy="12" r="12" fill="#FF8000"/>
<path d="M7.13835 11.482C6.89672 11.4826 6.66023 11.5517 6.45623 11.6812C6.25223 11.8107 6.08905 11.9952 5.98558 12.2136C5.88211 12.4319 5.84257 12.6751 5.87154 12.915C5.9005 13.1549 5.9968 13.3816 6.14927 13.5691L9.3997 17.5508C9.51559 17.6948 9.66415 17.8089 9.83303 17.8839C10.0019 17.9589 10.1862 17.9924 10.3707 17.9819C10.7652 17.9607 11.1214 17.7496 11.3485 17.4026L18.1005 6.52859C18.1016 6.52679 18.1027 6.52498 18.1039 6.52321C18.1673 6.42593 18.1467 6.23317 18.016 6.11207C17.98 6.07881 17.9377 6.05326 17.8915 6.03699C17.8454 6.02072 17.7963 6.01407 17.7475 6.01746C17.6987 6.02085 17.651 6.0342 17.6076 6.05669C17.5641 6.07917 17.5257 6.11033 17.4947 6.14822C17.4923 6.1512 17.4898 6.15414 17.4872 6.15703L10.6778 13.8507C10.6519 13.88 10.6204 13.9038 10.5852 13.9208C10.55 13.9378 10.5117 13.9477 10.4727 13.9498C10.4337 13.9519 10.3946 13.9462 10.3578 13.9331C10.3209 13.92 10.2871 13.8997 10.2582 13.8734L7.99824 11.8168C7.76353 11.6017 7.45675 11.4822 7.13835 11.482Z" fill="white"/>
</svg>
