<svg width="50" height="50" viewBox="0 0 50 50" fill="none" xmlns="http://www.w3.org/2000/svg">
<circle cx="25" cy="25" r="25" fill="#F5F5F5"/>
<path d="M14.582 23.8897C14.0643 23.8911 13.5575 24.0392 13.1204 24.3166C12.6832 24.5941 12.3335 24.9896 12.1118 25.4575C11.8901 25.9254 11.8054 26.4465 11.8674 26.9605C11.9295 27.4745 12.1359 27.9605 12.4626 28.3621L19.4278 36.8945C19.6761 37.2028 19.9945 37.4475 20.3563 37.6081C20.7182 37.7688 21.1132 37.8407 21.5085 37.8181C22.3539 37.7727 23.1172 37.3204 23.6038 36.5768L38.0723 13.2753C38.0747 13.2715 38.0772 13.2676 38.0797 13.2638C38.2155 13.0554 38.1714 12.6423 37.8912 12.3828C37.8142 12.3115 37.7235 12.2568 37.6246 12.2219C37.5256 12.187 37.4206 12.1728 37.316 12.1801C37.2113 12.1873 37.1093 12.2159 37.0161 12.2641C36.9229 12.3123 36.8406 12.3791 36.7742 12.4603C36.769 12.4667 36.7636 12.4729 36.7581 12.4791L22.1665 28.9655C22.111 29.0283 22.0435 29.0793 21.9681 29.1158C21.8927 29.1522 21.8108 29.1733 21.7271 29.1779C21.6434 29.1824 21.5597 29.1703 21.4808 29.1421C21.4019 29.114 21.3293 29.0705 21.2674 29.0142L16.4247 24.6073C15.9217 24.1462 15.2643 23.8902 14.582 23.8897Z" fill="#FF8000"/>
</svg>
