<svg width="24" height="24" viewBox="0 0 24 24" fill="none" xmlns="http://www.w3.org/2000/svg">
<path d="M21.5276 18.5462C21.2463 18.8274 20.8649 18.9854 20.4671 18.9854C20.0694 18.9854 19.6879 18.8274 19.4066 18.5462L11.9816 11.1212L4.55662 18.5462C4.27371 18.8194 3.89481 18.9706 3.50151 18.9672C3.10822 18.9638 2.732 18.806 2.45389 18.5279C2.17578 18.2498 2.01802 17.8736 2.01461 17.4803C2.01119 17.087 2.16238 16.7081 2.43562 16.4252L10.9211 7.93967C11.2024 7.65847 11.5839 7.50049 11.9816 7.50049C12.3794 7.50049 12.7608 7.65847 13.0421 7.93967L21.5276 16.4252C21.8088 16.7065 21.9668 17.0879 21.9668 17.4857C21.9668 17.8834 21.8088 18.2649 21.5276 18.5462Z" fill="#2F2F2F"/>
</svg>
